<svg width="74" height="72" viewBox="0 0 74 72" fill="none" xmlns="http://www.w3.org/2000/svg">
<path d="M36.9997 13.6667C24.0997 13.6667 13.6663 24.1 13.6663 37H20.333C20.333 27.8 27.7997 20.3334 36.9997 20.3334C46.1997 20.3334 53.6663 27.8 53.6663 37H60.333C60.333 24.1 49.8997 13.6667 36.9997 13.6667ZM40.333 44.6334C43.2663 43.3334 45.333 40.4334 45.333 37C45.333 32.4 41.5997 28.6667 36.9997 28.6667C32.3997 28.6667 28.6663 32.4 28.6663 37C28.6663 40.4 30.733 43.3334 33.6663 44.6334V55.6334L22.2997 67L26.9997 71.7L36.9997 61.7L46.9997 71.7L51.6997 67L40.333 55.6334V44.6334ZM36.9997 0.333374C16.7663 0.333374 0.333008 16.7667 0.333008 37H6.99967C6.99967 20.4334 20.433 7.00004 36.9997 7.00004C53.5663 7.00004 66.9997 20.4334 66.9997 37H73.6663C73.6663 16.7667 57.233 0.333374 36.9997 0.333374Z" fill="#FE5000"/>
</svg>
