<svg width="68" height="68" viewBox="0 0 68 68" fill="none" xmlns="http://www.w3.org/2000/svg">
<path d="M33.9671 0.666626C15.5671 0.666626 0.633789 15.6 0.633789 34C0.633789 52.4 15.5671 67.3333 33.9671 67.3333C52.3671 67.3333 67.3005 52.4 67.3005 34C67.3005 15.6 52.3671 0.666626 33.9671 0.666626ZM46.0005 21.8C49.5671 21.8 52.4338 24.6666 52.4338 28.2333C52.4338 31.8 49.5671 34.6666 46.0005 34.6666C42.4338 34.6666 39.5671 31.8 39.5671 28.2333C39.5338 24.6666 42.4338 21.8 46.0005 21.8ZM26.0005 16.5333C30.3338 16.5333 33.8671 20.0666 33.8671 24.4C33.8671 28.7333 30.3338 32.2666 26.0005 32.2666C21.6671 32.2666 18.1338 28.7333 18.1338 24.4C18.1338 20.0333 21.6338 16.5333 26.0005 16.5333ZM26.0005 46.9666V59.4666C18.0005 56.9666 11.6671 50.8 8.86712 42.9333C12.3671 39.2 21.1005 37.3 26.0005 37.3C27.7671 37.3 30.0005 37.5666 32.3338 38.0333C26.8671 40.9333 26.0005 44.7666 26.0005 46.9666ZM33.9671 60.6666C33.0671 60.6666 32.2005 60.6333 31.3338 60.5333V46.9666C31.3338 42.2333 41.1338 39.8666 46.0005 39.8666C49.5671 39.8666 55.7338 41.1666 58.8005 43.7C54.9005 53.6 45.2671 60.6666 33.9671 60.6666Z" fill="#FE5000"/>
</svg>
