<svg width="64" height="64" viewBox="0 0 64 64" fill="none" xmlns="http://www.w3.org/2000/svg">
<path d="M55.8 35.12C55.92 34.12 56 33.08 56 32C56 30.92 55.92 29.88 55.76 28.88L62.52 23.6C63.12 23.12 63.28 22.24 62.92 21.56L56.52 10.48C56.12 9.76 55.28 9.52 54.56 9.76L46.6 12.96C44.92 11.68 43.16 10.64 41.2 9.84L40 1.36C39.88 0.56 39.2 0 38.4 0H25.6C24.8 0 24.16 0.56 24.04 1.36L22.84 9.84C20.88 10.64 19.08 11.72 17.44 12.96L9.48003 9.76C8.76003 9.48 7.92003 9.76 7.52003 10.48L1.12003 21.56C0.72003 22.28 0.88003 23.12 1.52003 23.6L8.28003 28.88C8.12003 29.88 8.00003 30.96 8.00003 32C8.00003 33.04 8.08003 34.12 8.24003 35.12L1.48003 40.4C0.880029 40.88 0.72003 41.76 1.08003 42.44L7.48003 53.52C7.88003 54.24 8.72003 54.48 9.44003 54.24L17.4 51.04C19.08 52.32 20.84 53.36 22.8 54.16L24 62.64C24.16 63.44 24.8 64 25.6 64H38.4C39.2 64 39.88 63.44 39.96 62.64L41.16 54.16C43.12 53.36 44.92 52.28 46.56 51.04L54.52 54.24C55.24 54.52 56.08 54.24 56.48 53.52L62.88 42.44C63.28 41.72 63.12 40.88 62.48 40.4L55.8 35.12ZM32 44C25.4 44 20 38.6 20 32C20 25.4 25.4 20 32 20C38.6 20 44 25.4 44 32C44 38.6 38.6 44 32 44Z" fill="#FE5000"/>
</svg>
